<svg xmlns="http://www.w3.org/2000/svg" viewBox="0 0 17 17" width="17" height="17">
	<style>
		tspan { white-space:pre }
		.shp0 { fill: #ed3543 } 
	</style>
	<path id="Layer" class="shp0" d="M15.59,17l-3.54,-3.54c-1.26,0.96 -2.83,1.54 -4.54,1.54c-3.03,0 -5.77,-1.83 -6.93,-4.63c-1.16,-2.8 -0.52,-6.03 1.63,-8.17c2.14,-2.14 5.37,-2.79 8.17,-1.63c2.8,1.16 4.63,3.9 4.63,6.93c0,0.41 -0.03,0.81 -0.1,1.22c-0.07,0.4 -0.17,0.8 -0.3,1.18c-0.13,0.39 -0.29,0.76 -0.49,1.12c-0.19,0.36 -0.41,0.7 -0.66,1.03l3.54,3.54zM2,7.5c0,0.72 0.14,1.44 0.42,2.1c0.28,0.67 0.68,1.27 1.19,1.78c0.51,0.51 1.12,0.92 1.78,1.19c0.67,0.28 1.38,0.42 2.1,0.42c3.03,0 5.5,-2.47 5.5,-5.5c0,-3.03 -2.47,-5.5 -5.5,-5.5c-3.03,0 -5.5,2.47 -5.5,5.5z" />
</svg>